<svg width="60" height="60" viewBox="0 0 60 60" fill="none" xmlns="http://www.w3.org/2000/svg">
<path d="M36.5032 53.2369C35.7533 53.8018 34.9559 54.3967 34.2785 54.9866H40.0027C40.6656 54.9866 41.3014 55.25 41.7702 55.7188C42.239 56.1876 42.5023 56.8234 42.5023 57.4863C42.5023 58.1493 42.239 58.7851 41.7702 59.2538C41.3014 59.7226 40.6656 59.986 40.0027 59.986H30.004C29.3411 59.986 28.7053 59.7226 28.2365 59.2538C27.7677 58.7851 27.5044 58.1493 27.5044 57.4863C27.5044 53.7368 30.6914 51.3471 33.5036 49.2374C35.3783 47.8326 37.503 46.2378 37.503 44.988C37.503 44.325 37.2397 43.6892 36.7709 43.2205C36.3021 42.7517 35.6663 42.4883 35.0034 42.4883C34.3404 42.4883 33.7046 42.7517 33.2358 43.2205C32.767 43.6892 32.5037 44.325 32.5037 44.988C32.5037 45.6509 32.2403 46.2867 31.7716 46.7555C31.3028 47.2243 30.667 47.4876 30.004 47.4876C29.3411 47.4876 28.7053 47.2243 28.2365 46.7555C27.7677 46.2867 27.5044 45.6509 27.5044 44.988C27.5044 42.9991 28.2944 41.0917 29.7008 39.6854C31.1071 38.2791 33.0145 37.489 35.0034 37.489C36.9922 37.489 38.8996 38.2791 40.3059 39.6854C41.7123 41.0917 42.5023 42.9991 42.5023 44.988C42.5023 48.7375 39.3153 51.1272 36.5032 53.2369ZM57.5003 37.489C56.8374 37.489 56.2016 37.7523 55.7328 38.2211C55.264 38.6899 55.0007 39.3257 55.0007 39.9887V47.4876H52.501C51.8381 47.4876 51.2023 47.2243 50.7335 46.7555C50.2647 46.2867 50.0013 45.6509 50.0013 44.988V39.9887C50.0013 39.3257 49.738 38.6899 49.2692 38.2211C48.8004 37.7523 48.1646 37.489 47.5017 37.489C46.8387 37.489 46.2029 37.7523 45.7341 38.2211C45.2654 38.6899 45.002 39.3257 45.002 39.9887V44.988C45.002 46.9768 45.7921 48.8842 47.1984 50.2906C48.6048 51.6969 50.5121 52.487 52.501 52.487H55.0007V57.4863C55.0007 58.1493 55.264 58.7851 55.7328 59.2538C56.2016 59.7226 56.8374 59.986 57.5003 59.986C58.1633 59.986 58.7991 59.7226 59.2679 59.2538C59.7366 58.7851 60 58.1493 60 57.4863V39.9887C60 39.3257 59.7366 38.6899 59.2679 38.2211C58.7991 37.7523 58.1633 37.489 57.5003 37.489ZM32.5037 29.99V17.4917C32.5037 16.8287 32.2403 16.1929 31.7716 15.7241C31.3028 15.2554 30.667 14.992 30.004 14.992C29.3411 14.992 28.7053 15.2554 28.2365 15.7241C27.7677 16.1929 27.5044 16.8287 27.5044 17.4917V27.4903H20.0054C19.3424 27.4903 18.7066 27.7537 18.2378 28.2225C17.7691 28.6912 17.5057 29.327 17.5057 29.99C17.5057 30.6529 17.7691 31.2887 18.2378 31.7575C18.7066 32.2263 19.3424 32.4897 20.0054 32.4897H30.004C30.667 32.4897 31.3028 32.2263 31.7716 31.7575C32.2403 31.2887 32.5037 30.6529 32.5037 29.99ZM57.5003 4.99335C56.8374 4.99335 56.2016 5.2567 55.7328 5.72548C55.264 6.19426 55.0007 6.83006 55.0007 7.49301V13.4272C52.3962 9.49668 48.9018 6.23549 44.801 3.90825C40.7002 1.58102 36.1086 0.253295 31.3986 0.0328146C26.6886 -0.187666 21.993 0.705305 17.6928 2.63927C13.3925 4.57324 9.60873 7.49373 6.64845 11.1638C3.68818 14.8338 1.63479 19.15 0.654896 23.7622C-0.324999 28.3744 -0.2038 33.1526 1.00866 37.7092C2.22112 42.2658 4.49069 46.4724 7.63322 49.9876C10.7757 53.5029 14.7027 56.2278 19.0955 57.9412C19.3858 58.0532 19.6942 58.1108 20.0054 58.1112C20.5887 58.1121 21.154 57.909 21.6033 57.537C22.0526 57.165 22.3577 56.6476 22.4657 56.0744C22.5737 55.5011 22.4778 54.9082 22.1946 54.3982C21.9115 53.8882 21.4589 53.4933 20.9152 53.2819C17.1858 51.8398 13.8567 49.524 11.2075 46.5291C8.55827 43.5341 6.66618 39.9472 5.69006 36.0697C4.71394 32.1921 4.68228 28.1369 5.59774 24.2446C6.51319 20.3523 8.34905 16.7363 10.9512 13.7004C13.5533 10.6644 16.8458 8.29695 20.5523 6.79679C24.2588 5.29664 28.271 4.70754 32.2523 5.07895C36.2336 5.45036 40.0676 6.77145 43.4326 8.9313C46.7977 11.0912 49.5955 14.0268 51.5911 17.4917H45.002C44.3391 17.4917 43.7033 17.755 43.2345 18.2238C42.7657 18.6926 42.5023 19.3284 42.5023 19.9913C42.5023 20.6543 42.7657 21.2901 43.2345 21.7589C43.7033 22.2276 44.3391 22.491 45.002 22.491H52.501C54.4899 22.491 56.3973 21.7009 57.8036 20.2946C59.2099 18.8883 60 16.9809 60 14.992V7.49301C60 6.83006 59.7366 6.19426 59.2679 5.72548C58.7991 5.2567 58.1633 4.99335 57.5003 4.99335Z" fill="#2CA9BC"/>
</svg>
