<svg width="60" height="66" viewBox="0 0 60 66" fill="none" xmlns="http://www.w3.org/2000/svg">
<path fill-rule="evenodd" clip-rule="evenodd" d="M8.18182 40.9091C6.6756 40.9091 5.45455 42.1301 5.45455 43.6364V57.2727C5.45455 58.779 6.6756 60 8.18182 60C9.68804 60 10.9091 58.779 10.9091 57.2727V43.6364C10.9091 42.1301 9.68804 40.9091 8.18182 40.9091ZM8.18182 35.4545C12.7005 35.4545 16.3636 39.1175 16.3636 43.6364V57.2727C16.3636 61.7915 12.7005 65.4545 8.18182 65.4545C3.66314 65.4545 0 61.7915 0 57.2727V43.6364C0 39.1175 3.66314 35.4545 8.18182 35.4545ZM30 0C34.5188 0 38.1818 3.66314 38.1818 8.18182V57.2727C38.1818 61.7915 34.5188 65.4545 30 65.4545C25.4812 65.4545 21.8182 61.7915 21.8182 57.2727V8.18182C21.8182 3.66314 25.4812 0 30 0ZM30 5.45455C28.4937 5.45455 27.2727 6.6756 27.2727 8.18182V57.2727C27.2727 58.779 28.4937 60 30 60C31.5063 60 32.7273 58.779 32.7273 57.2727V8.18182C32.7273 6.6756 31.5063 5.45455 30 5.45455ZM51.8182 19.0909C56.337 19.0909 60 22.754 60 27.2727V57.2727C60 61.7915 56.337 65.4545 51.8182 65.4545C47.2994 65.4545 43.6364 61.7915 43.6364 57.2727V27.2727C43.6364 22.754 47.2994 19.0909 51.8182 19.0909ZM51.8182 24.5455C50.3119 24.5455 49.0909 25.7665 49.0909 27.2727V57.2727C49.0909 58.779 50.3119 60 51.8182 60C53.3245 60 54.5455 58.779 54.5455 57.2727V27.2727C54.5455 25.7665 53.3245 24.5455 51.8182 24.5455Z" fill="#2CA9BC"/>
</svg>
