<svg width="45" height="45" viewBox="0 0 45 45" fill="none" xmlns="http://www.w3.org/2000/svg">
<path d="M22.4692 8.42871H4.13086C3.41016 8.42871 2.82129 9.01318 2.82129 9.73389L2.78613 38.0479C2.78613 38.7729 3.37061 39.3574 4.0957 39.3574H17.5474L17.9121 40.0737C18.1362 40.5132 18.5845 40.79 19.0811 40.79H25.9365C26.4155 40.79 26.855 40.5264 27.0879 40.1089L27.4966 39.3618H40.856C41.5767 39.3618 42.1655 38.7773 42.1655 38.0522V9.73828C42.1655 9.01758 41.5811 8.42871 40.856 8.42871H22.4692Z" fill="#08A0F0"/>
<path d="M22.7549 8.32319C22.522 8.48139 22.2231 8.51216 21.9639 8.3979C20.5269 7.76509 15.6445 5.78755 11.0303 5.78755H6.3501C5.90186 5.78755 5.53711 6.15229 5.53711 6.60053V35.8945C5.53711 36.3427 5.90186 36.7075 6.3501 36.7075H20.7773C21.0146 36.7075 21.2388 36.8085 21.3926 36.9887L21.7793 37.4326C22.1001 37.8017 22.6714 37.8061 22.9966 37.4457L23.4272 36.9755C23.5811 36.8041 23.8008 36.7075 24.0293 36.7075H38.4785C38.9268 36.7075 39.2915 36.3427 39.2915 35.8945L39.3311 6.60053C39.3311 6.1479 38.9663 5.78315 38.5181 5.78315H33.583C33.583 5.78755 26.7451 5.60298 22.7549 8.32319Z" fill="white"/>
<path d="M22.4556 39.2915L21.0801 37.7095C20.9263 37.5293 20.7021 37.4282 20.4648 37.4282H5.56299C5.11475 37.4282 4.75 37.0635 4.75 36.6152V5.56346C4.75 5.11521 5.11475 4.75047 5.56299 4.75047H11.1177C15.5386 4.75047 20.1089 6.46434 21.981 7.25096C22.2271 7.35203 22.5039 7.33006 22.728 7.19383C26.8809 4.62742 33.2617 4.74168 33.688 4.75047H39.4932C39.9458 4.75047 40.3105 5.11521 40.3062 5.56785L40.2622 36.6196C40.2622 37.0679 39.8975 37.4326 39.4492 37.4326H24.5078C24.2793 37.4326 24.0596 37.5293 23.9058 37.7007L22.4556 39.2915ZM6.50342 35.6704H21.269C21.5063 35.6704 21.7305 35.7715 21.8843 35.9516C22.2051 36.3208 22.7764 36.3252 23.1016 35.9648L23.1279 35.9385C23.2817 35.7671 23.5015 35.6704 23.73 35.6704H38.5044L38.5439 6.50389H33.6484C33.5781 6.50389 26.6304 6.35008 23.0049 9.12742L22.9741 9.14939C22.7324 9.33396 22.4028 9.36912 22.126 9.23729L22.0908 9.21971C22.0161 9.18455 16.3252 6.50389 11.1133 6.50389H6.50342V35.6704Z" fill="#8A8A8A"/>
<path d="M21.5898 8.79346H23.3477V38.127H21.5898V8.79346Z" fill="#8A8A8A"/>
<path d="M25.3125 12.8145H36.5625V14.5723H25.3125V12.8145ZM25.3125 19.4722H36.5625V21.23H25.3125V19.4722ZM25.3125 26.8726H36.5625V28.6304H25.3125V26.8726ZM8.39355 12.8101H19.6436V14.5679H8.39355V12.8101ZM8.39355 19.4722H19.6436V21.23H8.39355V19.4722ZM8.39355 26.8726H19.6436V28.6304H8.39355V26.8726Z" fill="#CDCDCD"/>
</svg>
