<svg width="55" height="55" viewBox="0 0 55 55" fill="none" xmlns="http://www.w3.org/2000/svg">
<path fill-rule="evenodd" clip-rule="evenodd" d="M28.5384 11.3027C26.3205 9.45561 23.5314 8.43375 20.6452 8.41089C17.7591 8.38802 14.9541 9.36556 12.7073 11.1773C10.4604 12.989 8.91052 15.523 8.32107 18.3484C7.73161 21.1739 8.13901 24.1162 9.47398 26.6752C9.90023 27.4899 9.85898 28.3596 9.82461 28.7721C9.7713 29.3151 9.67475 29.8531 9.53586 30.3808C9.33954 31.141 9.11016 31.8922 8.84836 32.6324C9.74211 32.323 10.6359 32.048 11.4265 31.8658C12.0487 31.7236 12.7019 31.8344 13.2425 32.1738C13.783 32.5132 14.1666 33.0534 14.3088 33.6757C14.451 34.2979 14.3403 34.9511 14.0009 35.4917C13.6614 36.0322 13.1212 36.4158 12.499 36.558C11.3302 36.8261 9.6218 37.4449 8.10586 38.0499C7.29714 38.3747 6.49381 38.7128 5.69617 39.0639L5.5518 39.1258L5.51742 39.143L5.50711 39.1464C5.06142 39.347 4.56522 39.4072 4.08453 39.3188C3.60383 39.2304 3.16144 38.9978 2.81622 38.6518C2.471 38.3059 2.23931 37.863 2.152 37.3821C2.06468 36.9012 2.12587 36.4051 2.32742 35.9599V35.9564L2.3343 35.9427L2.3618 35.8808L2.46492 35.6402C2.98949 34.4538 3.48238 33.2537 3.94305 32.0411C4.33148 31.0099 4.66836 30.0061 4.87117 29.2155C4.94336 28.9061 4.98805 28.6758 5.01211 28.5108C3.26999 24.9541 2.8009 20.9073 3.6832 17.0463C4.5655 13.1854 6.74576 9.74401 9.85985 7.29699C12.9739 4.84998 16.8333 3.54547 20.7934 3.60133C24.7535 3.6572 28.5745 5.07006 31.6184 7.60394C32.1088 8.01237 32.417 8.59892 32.475 9.23456C32.533 9.87019 32.3362 10.5028 31.9277 10.9933C31.5193 11.4838 30.9328 11.7919 30.2971 11.85C29.6615 11.908 29.0288 11.7111 28.5384 11.3027Z" fill="#ECF0F1" fill-opacity="0.8"/>
<path fill-rule="evenodd" clip-rule="evenodd" d="M16.3281 32.0823C16.3302 29.4561 16.9242 26.8641 18.066 24.499C19.2079 22.134 20.8681 20.0568 22.9234 18.4218C24.9787 16.7869 27.3761 15.6363 29.9373 15.0556C32.4986 14.4748 35.1578 14.479 37.7172 15.0676C40.2767 15.6562 42.6705 16.8143 44.7207 18.4556C46.7709 20.0969 48.4248 22.1792 49.5593 24.5478C50.6938 26.9163 51.2798 29.5102 51.2737 32.1364C51.2676 34.7627 50.6696 37.3538 49.5241 39.717C49.5447 39.8305 49.5756 39.9817 49.6237 40.1742C49.7956 40.8514 50.105 41.7314 50.4762 42.6973C50.7753 43.4639 51.0881 44.2202 51.3769 44.918L51.5831 45.4198C51.7516 45.8255 51.9062 46.2105 52.0334 46.5405C52.1366 46.8223 52.2878 47.228 52.3669 47.5924C52.4462 47.9679 52.4407 48.3564 52.3507 48.7296C52.2607 49.1027 52.0885 49.451 51.8467 49.7492C51.605 50.0473 51.2997 50.2876 50.9531 50.4527C50.6066 50.6178 50.2276 50.7034 49.8438 50.7033C49.2628 50.7033 48.7025 50.5658 48.3072 50.4558C47.8494 50.3216 47.3975 50.1679 46.9528 49.9952C46.3066 49.7477 45.5709 49.4383 44.8697 49.1427L44.1272 48.8333C43.3349 48.49 42.5261 48.1859 41.7038 47.9223C41.5958 47.8895 41.4869 47.8597 41.3772 47.833C38.7132 49.1149 35.7674 49.6999 32.8157 49.5332C29.864 49.3665 27.0028 48.4535 24.5001 46.8798C21.9973 45.3061 19.9348 43.1231 18.5056 40.5351C17.0763 37.9471 16.3271 35.0388 16.3281 32.0823ZM21.4844 32.0823C21.486 30.2169 21.9113 28.3761 22.7283 26.699C23.5453 25.0219 24.7326 23.5523 26.2005 22.4012C27.6685 21.25 29.3787 20.4473 31.2022 20.0537C33.0257 19.6601 34.9148 19.6859 36.7269 20.129C38.539 20.5722 40.2267 21.4212 41.6628 22.612C43.0988 23.8028 44.2455 25.3042 45.0165 27.0029C45.7874 28.7016 46.1625 30.5533 46.1132 32.4182C46.064 34.283 45.5917 36.1123 44.7322 37.768C44.3059 38.5895 44.3197 39.4352 44.3541 39.8786C44.3884 40.4114 44.5019 40.9545 44.6291 41.4461C44.8147 42.1817 45.0828 42.9861 45.3716 43.7698C44.6475 43.4711 43.9099 43.2062 43.1613 42.9758C42.6646 42.8226 42.1548 42.7156 41.6384 42.6561C40.9017 42.5639 40.154 42.6881 39.4866 43.0136C37.6088 43.9908 35.5109 44.4675 33.3953 44.3978C31.2796 44.328 29.2177 43.7142 27.4083 42.6156C25.599 41.5169 24.1033 39.9705 23.0657 38.1255C22.028 36.2804 21.4834 34.1991 21.4844 32.0823ZM49.5 39.5073L49.4966 39.4661V39.5108L49.5 39.5073Z" fill="#ECF0F1" fill-opacity="0.8"/>
</svg>
