<svg width="60" height="58" viewBox="0 0 60 58" fill="none" xmlns="http://www.w3.org/2000/svg">
<path d="M54.5448 35.0691V29.9993C54.5448 29.276 54.2575 28.5823 53.7461 28.0708C53.2346 27.5594 52.5409 27.2721 51.8176 27.2721C51.0943 27.2721 50.4007 27.5594 49.8892 28.0708C49.3778 28.5823 49.0904 29.276 49.0904 29.9993V32.7265H10.9096V8.18162H30C30.7233 8.18162 31.417 7.89429 31.9284 7.38284C32.4399 6.87139 32.7272 6.17771 32.7272 5.45441C32.7272 4.73111 32.4399 4.03744 31.9284 3.52599C31.417 3.01454 30.7233 2.72721 30 2.72721H10.9096C9.46296 2.72721 8.07561 3.30186 7.05271 4.32477C6.02981 5.34767 5.45515 6.73502 5.45515 8.18162V35.0691L0.104371 53.7969C-0.0112595 54.2027 -0.0311248 54.6299 0.0463382 55.0447C0.123801 55.4595 0.296479 55.8507 0.550783 56.1875C0.805087 56.5243 1.13408 56.7975 1.51187 56.9855C1.88966 57.1736 2.30593 57.2714 2.72794 57.2713H57.2721C57.6941 57.2714 58.1103 57.1736 58.4881 56.9855C58.8659 56.7975 59.1949 56.5243 59.4492 56.1875C59.7035 55.8507 59.8762 55.4595 59.9537 55.0447C60.0311 54.6299 60.0113 54.2027 59.8956 53.7969L54.5448 35.0691ZM6.34422 51.8169L10.2387 38.1809H49.7613L53.6558 51.8169H6.34422ZM58.9084 8.72706H57.1957C56.9691 8.72221 56.7491 8.64943 56.5644 8.51814C56.3796 8.38685 56.2385 8.20311 56.1594 7.99071V7.97708C56.0669 7.77089 56.0382 7.54173 56.0771 7.31912C56.116 7.09651 56.2206 6.89064 56.3775 6.72802L57.5884 5.51714C57.6919 5.41559 57.7741 5.29442 57.8302 5.16073C57.8863 5.02704 57.9152 4.88351 57.9152 4.73852C57.9152 4.59353 57.8863 4.44999 57.8302 4.3163C57.7741 4.18261 57.6919 4.06145 57.5884 3.9599L56.0584 2.42994C55.9569 2.32645 55.8357 2.24425 55.702 2.18813C55.5684 2.13202 55.4248 2.10311 55.2798 2.10311C55.1348 2.10311 54.9913 2.13202 54.8576 2.18813C54.7239 2.24425 54.6028 2.32645 54.5012 2.42994L53.2903 3.64082C53.1278 3.79793 52.9218 3.90249 52.699 3.94092C52.4762 3.97934 52.2471 3.94985 52.0413 3.85627H52.0249C51.8132 3.77637 51.6303 3.63501 51.4995 3.45034C51.3688 3.26567 51.2963 3.04613 51.2913 2.81993V1.09088C51.2913 0.801562 51.1764 0.524092 50.9718 0.319512C50.7672 0.114932 50.4897 0 50.2004 0H47.9996C47.7102 0 47.4328 0.114932 47.2282 0.319512C47.0236 0.524092 46.9087 0.801562 46.9087 1.09088V2.80357C46.9037 3.02977 46.8311 3.24931 46.7004 3.43398C46.5697 3.61865 46.3867 3.76001 46.1751 3.83991H46.1587C45.9529 3.93348 45.7237 3.96298 45.501 3.92455C45.2782 3.88613 45.0722 3.78156 44.9096 3.62446L43.6988 2.41358C43.5972 2.31009 43.476 2.22789 43.3424 2.17177C43.2087 2.11565 43.0651 2.08675 42.9201 2.08675C42.7751 2.08675 42.6316 2.11565 42.4979 2.17177C42.3642 2.22789 42.2431 2.31009 42.1415 2.41358L40.6116 3.94354C40.5081 4.04509 40.4259 4.16625 40.3697 4.29994C40.3136 4.43363 40.2847 4.57717 40.2847 4.72216C40.2847 4.86715 40.3136 5.01068 40.3697 5.14437C40.4259 5.27806 40.5081 5.39922 40.6116 5.50077L41.8224 6.71165C41.9793 6.87428 42.084 7.08015 42.1229 7.30276C42.1617 7.52537 42.1331 7.75452 42.0406 7.96071V7.97435C41.9615 8.18675 41.8204 8.37049 41.6356 8.50178C41.4508 8.63306 41.2309 8.70584 41.0043 8.71069H39.2725C38.9832 8.71069 38.7057 8.82563 38.5011 9.03021C38.2965 9.23479 38.1816 9.51226 38.1816 9.80158V11.9997C38.1816 12.289 38.2965 12.5665 38.5011 12.7711C38.7057 12.9757 38.9832 13.0906 39.2725 13.0906H40.9852C41.2114 13.0956 41.4309 13.1681 41.6156 13.2988C41.8003 13.4296 41.9416 13.6125 42.0215 13.8242V13.8406C42.114 14.0468 42.1427 14.2759 42.1038 14.4985C42.0649 14.7211 41.9603 14.927 41.8033 15.0896L40.5925 16.3005C40.489 16.4021 40.4068 16.5232 40.3507 16.6569C40.2945 16.7906 40.2656 16.9341 40.2656 17.0791C40.2656 17.2241 40.2945 17.3676 40.3507 17.5013C40.4068 17.635 40.489 17.7562 40.5925 17.8577L42.1224 19.3877C42.224 19.4912 42.3451 19.5734 42.4788 19.6295C42.6125 19.6856 42.7561 19.7145 42.901 19.7145C43.046 19.7145 43.1896 19.6856 43.3233 19.6295C43.4569 19.5734 43.5781 19.4912 43.6797 19.3877L44.8905 18.1768C45.0532 18.0199 45.259 17.9153 45.4816 17.8764C45.7043 17.8375 45.9334 17.8662 46.1396 17.9586H46.156C46.3681 18.0379 46.5514 18.1791 46.6823 18.3639C46.8131 18.5487 46.8853 18.7686 46.8896 18.995V20.7268C46.8896 21.0161 47.0045 21.2936 47.2091 21.4981C47.4137 21.7027 47.6911 21.8176 47.9805 21.8176H50.1813C50.4706 21.8176 50.7481 21.7027 50.9527 21.4981C51.1573 21.2936 51.2722 21.0161 51.2722 20.7268V19.0032C51.2765 18.7768 51.3487 18.5569 51.4795 18.3721C51.6104 18.1873 51.7937 18.0461 52.0058 17.9668H52.0222C52.2284 17.8743 52.4575 17.8457 52.6801 17.8846C52.9027 17.9235 53.1086 18.0281 53.2712 18.185L54.4821 19.3959C54.5837 19.4994 54.7048 19.5816 54.8385 19.6377C54.9722 19.6938 55.1158 19.7227 55.2607 19.7227C55.4057 19.7227 55.5493 19.6938 55.683 19.6377C55.8166 19.5816 55.9378 19.4994 56.0394 19.3959L57.5693 17.8659C57.6728 17.7644 57.755 17.6432 57.8111 17.5095C57.8672 17.3758 57.8961 17.2323 57.8961 17.0873C57.8961 16.9423 57.8672 16.7988 57.8111 16.6651C57.755 16.5314 57.6728 16.4102 57.5693 16.3087L56.3584 15.0978C56.2015 14.9352 56.0969 14.7293 56.058 14.5067C56.0191 14.2841 56.0478 14.0549 56.1403 13.8488V13.8324C56.2202 13.6207 56.3615 13.4377 56.5462 13.307C56.7309 13.1763 56.9504 13.1038 57.1766 13.0988H58.9084C59.0516 13.0988 59.1935 13.0706 59.3258 13.0157C59.4582 12.9609 59.5784 12.8806 59.6797 12.7793C59.781 12.678 59.8614 12.5577 59.9162 12.4253C59.971 12.293 59.9993 12.1511 59.9993 12.0079V9.81794C59.9993 9.52862 59.8843 9.25115 59.6797 9.04657C59.4752 8.84199 59.1977 8.72706 58.9084 8.72706ZM49.0904 14.1815C48.4432 14.1815 47.8104 13.9895 47.2723 13.6299C46.7341 13.2703 46.3146 12.7592 46.0669 12.1612C45.8192 11.5632 45.7544 10.9052 45.8807 10.2704C46.0069 9.63553 46.3186 9.0524 46.7763 8.59471C47.234 8.13702 47.8171 7.82533 48.452 7.69906C49.0868 7.57278 49.7448 7.63759 50.3428 7.88529C50.9408 8.13299 51.4519 8.55245 51.8115 9.09064C52.1711 9.62882 52.3631 10.2616 52.3631 10.9088C52.3631 11.7768 52.0183 12.6092 51.4045 13.2229C50.7908 13.8367 49.9584 14.1815 49.0904 14.1815Z" fill="#2CA9BC"/>
</svg>
