<svg width="60" height="60" viewBox="0 0 60 60" fill="none" xmlns="http://www.w3.org/2000/svg">
<path d="M17.9914 16.2812C17.9575 16.2812 17.9234 16.2916 17.8946 16.3115L0.0751172 28.4759C0.0278906 28.5081 0 28.561 0 28.6186V31.8906C0 31.9473 0.0278906 32.0011 0.0751172 32.0324L17.8946 44.1978C17.9235 44.2177 17.9575 44.228 17.9914 44.228C18.0193 44.228 18.0463 44.2205 18.0718 44.2082C18.1286 44.178 18.1635 44.1194 18.1635 44.0552V38.8429C18.1635 38.7871 18.1356 38.7332 18.0884 38.702L5.71512 30.2537L18.0884 21.8083C18.1356 21.7752 18.1635 21.7223 18.1635 21.6646V16.4542C18.1635 16.39 18.1286 16.3313 18.0718 16.302C18.0463 16.2879 18.0193 16.2812 17.9914 16.2812Z" fill="#2CA9BC"/>
<path d="M59.9248 28.4759L42.1053 16.3115C42.0764 16.2917 42.0424 16.2812 42.0083 16.2812C41.9805 16.2812 41.9536 16.2878 41.9281 16.302C41.8713 16.3313 41.8364 16.39 41.8364 16.4542V21.6665C41.8364 21.7232 41.8643 21.7762 41.9115 21.8083L54.2849 30.2537L41.9115 38.702C41.8643 38.7332 41.8364 38.787 41.8364 38.8447V44.055C41.8364 44.1193 41.8713 44.178 41.9281 44.2081C41.9536 44.2204 41.9806 44.2279 42.0083 44.2279C42.0424 44.2279 42.0764 44.2176 42.1053 44.1977L59.9248 32.0323C59.9721 32.001 60 31.9472 60 31.8905V28.6185C60 28.561 59.9721 28.5081 59.9248 28.4759Z" fill="#2CA9BC"/>
<path d="M38.1452 13.429H33.1645C33.0908 13.429 33.0255 13.4752 33.0019 13.5443L21.6913 46.3433C21.6734 46.3952 21.682 46.4538 21.7141 46.4982C21.7467 46.5436 21.7987 46.571 21.8545 46.571H26.8356C26.9089 46.571 26.9742 46.5247 26.9982 46.4547L38.3083 13.6577C38.3262 13.6047 38.3178 13.5461 38.2857 13.5008C38.253 13.4564 38.2008 13.429 38.1452 13.429Z" fill="#2CA9BC"/>
</svg>
