<svg width="40" height="40" viewBox="0 0 40 40" fill="none" xmlns="http://www.w3.org/2000/svg">
<g clip-path="url(#clip0_16_401)">
<path fill-rule="evenodd" clip-rule="evenodd" d="M29.5002 16.4982L28.8562 21.1986H21.1218V37.6498H16.4215V21.1986H9.37092V16.4982H16.4215V12.1904C16.4215 6.21388 20.0924 2.35017 25.7775 2.35017C28.2123 2.35017 29.7305 2.47944 30.6071 2.59694L30.539 7.04819L26.9244 7.05523C26.8257 7.04583 24.4708 6.86252 22.7716 8.42304C21.6765 9.42656 21.1218 10.8696 21.1218 12.7074V16.4983H29.5002V16.4982ZM24.3486 10.1645C25.2746 9.302 26.7176 9.396 26.8233 9.40071L32.8539 9.39835L32.9831 0.700354L32.076 0.477083C31.4931 0.33375 29.7094 0 25.7775 0C18.7763 0 14.0713 4.90013 14.0713 12.1904V14.1481H7.02075V23.5488H14.0713V40H23.472V23.5487H30.9032L32.1935 14.1481H23.472V12.7074C23.472 11.5629 23.7681 10.7074 24.3486 10.1645Z" fill="#ECF0F1" fill-opacity="0.8"/>
</g>
<defs>
<clipPath id="clip0_16_401">
<rect width="40" height="40" fill="white"/>
</clipPath>
</defs>
</svg>
