<svg width="40" height="40" viewBox="0 0 40 40" fill="none" xmlns="http://www.w3.org/2000/svg">
<path d="M20 1.25C9.6875 1.25 1.25 9.6875 1.25 20C1.25 30.3125 9.6875 38.75 20 38.75C30.3125 38.75 38.75 30.3125 38.75 20C38.75 9.6875 30.3125 1.25 20 1.25ZM32.5 30.125C31.75 29.4375 30.9375 28.8125 30.125 28.3125C31.1875 26.1875 31.8125 23.875 32 21.5H36C35.75 24.75 34.5 27.75 32.5 30.125ZM3.9375 21.5H7.875C8.0625 23.875 8.75 26.1875 9.75 28.3125C8.9375 28.875 8.1875 29.4375 7.4375 30.125C5.5 27.75 4.25 24.75 3.9375 21.5ZM7.5 9.875C8.25 10.5625 9 11.125 9.8125 11.6875C8.6875 13.9375 8.0625 16.375 7.875 18.875H3.9375C4.125 15.5 5.4375 12.375 7.5 9.875ZM18.6875 6V12C16.875 11.875 15.125 11.375 13.4375 10.6875C14.8125 8.75 16.625 7.125 18.6875 6ZM18.6875 14.625V18.875H10.5C10.625 16.75 11.1875 14.75 12.125 12.9375C14.125 13.9375 16.375 14.5 18.6875 14.625ZM18.6875 21.5V25.375C16.375 25.5625 14.125 26.125 12.0625 27.0625C11.25 25.375 10.6875 23.5 10.5 21.5H18.6875ZM18.6875 28V34.0625C16.5625 32.875 14.8125 31.3125 13.4375 29.375C15.0625 28.625 16.875 28.125 18.6875 28ZM21.3125 34V28C23.125 28.125 24.875 28.5625 26.5 29.3125C25.125 31.1875 23.375 32.8125 21.3125 34ZM21.3125 25.375V21.5H29.375C29.1875 23.4375 28.625 25.3125 27.8125 27C25.8125 26.0625 23.625 25.5 21.3125 25.375ZM21.3125 18.875V14.625C23.625 14.5 25.8125 13.875 27.875 12.9375C28.75 14.75 29.3125 16.75 29.4375 18.8125H21.3125V18.875ZM21.3125 12V6C23.375 7.1875 25.125 8.75 26.5 10.6875C24.875 11.4375 23.125 11.875 21.3125 12ZM27.8125 8.125C26.5625 6.625 25.125 5.3125 23.5 4.3125C26.25 4.9375 28.6875 6.1875 30.6875 8C30.0625 8.5625 29.4375 9 28.8125 9.4375C28.5 9 28.1875 8.5 27.8125 8.125ZM12.125 8.125C11.8125 8.5625 11.4375 9 11.125 9.4375C10.5 9 9.875 8.5625 9.3125 8C11.3125 6.25 13.75 4.9375 16.4375 4.3125C14.75 5.3125 13.3125 6.625 12.125 8.125ZM11.125 30.625C11.375 31 11.625 31.375 11.9375 31.6875C13.1875 33.25 14.6875 34.625 16.375 35.6875C13.6875 35.0625 11.25 33.8125 9.25 32C9.875 31.5 10.5 31.0625 11.125 30.625ZM27.875 31.875C28.1875 31.4375 28.5625 31 28.875 30.5625C29.5625 31 30.1875 31.5 30.75 32C28.75 33.8125 26.25 35.0625 23.5625 35.6875C25.125 34.6875 26.625 33.375 27.875 31.875ZM32.0625 18.875C31.9375 16.375 31.25 13.9375 30.125 11.6875C30.9375 11.125 31.75 10.5625 32.5 9.875C34.5 12.375 35.8125 15.5 36.0625 18.875H32.0625Z" fill="#4FD1D9"/>
</svg>
