<svg width="55" height="60" viewBox="0 0 55 60" fill="none" xmlns="http://www.w3.org/2000/svg">
<path d="M31.1266 4.32402C32.0996 6.02659 32.7658 10.2492 33.1157 15.8405H39.3323V9.90573C39.1981 9.84286 39.0687 9.7703 38.944 9.68808C38.7092 9.53813 38.4935 9.36401 38.3066 9.17537L38.2826 9.15119C37.9519 8.81745 37.6883 8.41599 37.5061 7.971C37.324 7.53085 37.2233 7.04716 37.2233 6.53929C37.2233 6.03626 37.324 5.55742 37.5061 5.11243C37.6931 4.65293 37.9711 4.2418 38.3066 3.89838C38.6469 3.55496 39.0543 3.27926 39.5096 3.09063C39.9458 2.90683 40.4251 2.80525 40.9236 2.80525C41.422 2.80525 41.8965 2.90683 42.3375 3.09063C42.7928 3.27926 43.2002 3.5598 43.5406 3.89838C43.8809 4.2418 44.1541 4.65293 44.341 5.10759L44.3506 5.13661C44.5231 5.57193 44.619 6.04594 44.619 6.53446C44.619 7.03749 44.5183 7.51634 44.3362 7.96133C44.1493 8.42083 43.8713 8.83196 43.5358 9.17537L43.507 9.20439C43.3392 9.36884 43.1523 9.52362 42.9558 9.65422C42.8504 9.72677 42.7401 9.78965 42.6251 9.85253V17.5141C42.6251 17.9736 42.4382 18.3896 42.141 18.6894C41.8438 18.9893 41.4316 19.178 40.9763 19.178H33.2787C33.3362 20.7693 33.3745 22.4428 33.3889 24.1696H47.9789C48.0412 24.0438 48.1083 23.9229 48.1802 23.8068L48.1994 23.7826C48.3384 23.565 48.5013 23.3667 48.6739 23.1925C49.0142 22.8491 49.4216 22.5734 49.8769 22.3848L49.9057 22.3751C50.3371 22.201 50.8068 22.0994 51.2909 22.0994C51.7894 22.0994 52.2639 22.201 52.7048 22.3848C53.1602 22.5734 53.5676 22.854 53.9079 23.1925C54.2482 23.5359 54.5214 23.9471 54.7083 24.4066C54.8904 24.8516 54.9911 25.3304 54.9911 25.8334C54.9911 26.3365 54.8904 26.8153 54.7083 27.2603C54.5214 27.7198 54.2434 28.1309 53.9079 28.4744C53.5676 28.8178 53.1602 29.0935 52.7048 29.2821L52.6761 29.2918C52.2447 29.4659 51.775 29.5627 51.2909 29.5627C50.7924 29.5627 50.3131 29.4611 49.8769 29.2773C49.4264 29.0886 49.019 28.8129 48.6739 28.4695C48.4918 28.2857 48.3288 28.0826 48.185 27.8552C48.1083 27.7392 48.0412 27.6182 47.9789 27.4925H33.3937C33.3793 29.3789 33.341 31.3088 33.2787 33.2725H51.1135C51.5689 33.2725 51.9811 33.4611 52.2782 33.761C52.5754 34.0609 52.7623 34.4769 52.7623 34.9364V47.2848C52.9205 47.3525 53.0691 47.4299 53.2129 47.517C53.4717 47.6718 53.7066 47.8604 53.9175 48.0732C54.2578 48.4167 54.531 48.8278 54.7179 49.2873L54.7275 49.3163C54.9 49.7516 55.0007 50.2256 55.0007 50.7142C55.0007 51.2172 54.9 51.696 54.7179 52.141C54.531 52.6005 54.253 53.0117 53.9175 53.3551C53.5772 53.6985 53.1697 53.9742 52.7144 54.1628C52.2782 54.3466 51.7989 54.4482 51.3005 54.4482C50.802 54.4482 50.3275 54.3466 49.8865 54.1628C49.4312 53.9742 49.0238 53.6936 48.6835 53.3551C48.3432 53.0117 48.07 52.6005 47.883 52.141C47.7009 51.7009 47.6002 51.2172 47.6002 50.7142C47.6002 50.2111 47.7009 49.7274 47.883 49.2873C48.07 48.8278 48.348 48.4167 48.6835 48.0732C48.8368 47.9185 49.0094 47.7734 49.1915 47.6428C49.2778 47.5799 49.3689 47.5218 49.4647 47.4686V36.6051H33.1493C33.0774 38.1722 32.9911 39.7442 32.8857 41.3113H38.1772C38.6325 41.3113 39.0447 41.5 39.3419 41.7999C39.639 42.0997 39.826 42.5157 39.826 42.9752V49.5823C39.9458 49.6452 40.056 49.7129 40.1711 49.7855C40.3915 49.9306 40.588 50.095 40.7654 50.274L40.7941 50.303C41.1201 50.6416 41.3885 51.0431 41.5706 51.488C41.7528 51.9282 41.8534 52.4119 41.8534 52.9149C41.8534 53.4179 41.7528 53.9016 41.5706 54.3418L41.5562 54.3708C41.3693 54.8206 41.0961 55.2221 40.7654 55.5558L40.7414 55.58C40.4059 55.9138 40.0081 56.1846 39.5719 56.3684C39.1358 56.5522 38.6517 56.6538 38.1532 56.6538C37.6547 56.6538 37.1802 56.5522 36.7392 56.3684C36.2839 56.1798 35.8765 55.8992 35.5362 55.5607L35.5074 55.5316C35.1815 55.1931 34.9131 54.7916 34.731 54.3466C34.5488 53.9016 34.4482 53.4228 34.4482 52.9198C34.4482 52.4167 34.5488 51.9379 34.731 51.4929C34.9179 51.0334 35.1911 50.6223 35.5314 50.2788C35.7183 50.0902 35.9292 49.9209 36.1497 49.7758C36.2695 49.6984 36.3941 49.6259 36.5236 49.563V44.6439H32.6412C32.5885 45.3066 32.531 45.9692 32.4734 46.627C32.3968 47.4783 32.1523 49.0503 32.3105 49.829C32.7323 51.8943 30.887 58.1242 25.4612 59.2705C22.7867 59.8316 20.0212 59.0045 17.9362 57.36C16.2682 56.0492 15.0172 54.2063 14.5667 52.1217C13.6944 52.0878 12.8077 51.9089 11.9449 51.6186C10.0373 50.9705 8.20155 49.7081 6.76844 48.0345C5.32574 46.3562 4.28086 44.2473 3.95014 41.9014C3.78238 40.6777 3.80635 39.4008 4.07476 38.0852C3.14012 37.229 2.33489 36.2665 1.69741 35.2169C0.585431 33.4225 -0.0232834 31.4007 0.00068171 29.3208C0.0246469 27.2265 0.686085 25.1031 2.1192 23.1297C2.95319 21.9833 4.05079 20.8902 5.44077 19.889C5.42639 19.5069 5.42639 19.1248 5.43598 18.7475C5.54622 15.6906 6.66299 13.0013 8.29262 10.994C9.97977 8.91418 12.2373 7.55503 14.5571 7.22129H14.5667C14.6482 6.87787 14.744 6.53929 14.8687 6.21039C15.6164 4.16441 17.1549 2.42314 19.0386 1.31551C20.9366 0.203034 23.2133 -0.290324 25.4325 0.174013C27.5654 0.628676 29.5976 1.91528 31.1266 4.32402ZM14.7488 47.9958C15.5349 45.5 17.6103 43.0091 21.5262 40.9921C22.504 40.4939 23.6926 40.8809 24.1959 41.8627C24.6896 42.8494 24.3061 44.049 23.3331 44.5569C19.7048 46.4287 18.3388 48.5763 18.3388 50.4481C18.3388 51.9089 19.1632 53.2728 20.3615 54.2209C21.5789 55.1737 23.151 55.6719 24.6368 55.3624C26.487 54.9754 28.27 53.2487 29.195 49.4856V9.92025C28.27 6.1862 26.487 4.46913 24.6416 4.08218C23.4242 3.82583 22.1301 4.11604 21.0277 4.76901C19.9109 5.42198 19.0146 6.42805 18.588 7.58889C18.0225 9.13668 18.358 11.0376 20.2752 12.8272C21.0708 13.5769 21.1236 14.8296 20.3806 15.6326C19.6377 16.4355 18.3963 16.4887 17.6007 15.739C16.1101 14.346 15.1898 12.8659 14.7297 11.3906C13.5554 11.676 12.3955 12.4596 11.456 13.6108C10.3584 14.9602 9.60591 16.7886 9.52922 18.8877C9.51005 19.444 9.53881 20.0341 9.62029 20.6387H9.6155C9.72094 21.4223 9.37585 22.2348 8.66648 22.675C7.22857 23.565 6.16931 24.5469 5.42639 25.5674C4.5253 26.8057 4.1131 28.1068 4.09872 29.3595C4.08434 30.6316 4.47258 31.8988 5.16757 33.0355C5.75711 33.998 6.56234 34.8783 7.54491 35.6135C8.28303 36.1262 8.62813 37.0839 8.32617 37.9788C7.93794 39.1396 7.85166 40.2666 8.00025 41.3162C8.21114 42.8253 8.90613 44.2038 9.85515 45.3114C10.809 46.4239 12.0168 47.2558 13.2534 47.6815C13.7519 47.8749 14.2551 47.9717 14.7488 47.9958ZM15.1994 19.889C15.9758 19.1199 17.222 19.1296 17.9889 19.9132C18.751 20.6967 18.7414 21.9543 17.965 22.7282C16.273 24.4114 15.3911 26.5783 15.2952 28.7936C15.2042 31.0766 15.9375 33.4273 17.4809 35.3572C18.1663 36.2133 18.0273 37.466 17.1789 38.1577C16.3305 38.8494 15.0891 38.7091 14.4037 37.853C12.2421 35.1492 11.2164 31.8602 11.3458 28.634C11.4848 25.432 12.7597 22.3074 15.1994 19.889Z" fill="#ECF0F1" fill-opacity="0.8"/>
</svg>
