<svg width="55" height="53" viewBox="0 0 55 53" fill="none" xmlns="http://www.w3.org/2000/svg">
<path fill-rule="evenodd" clip-rule="evenodd" d="M9.16667 37.4999C6.12883 37.4999 3.66667 35.0378 3.66667 31.9999C3.66667 28.9639 6.12883 26.4999 9.16667 26.4999C12.2045 26.4999 14.6667 28.9639 14.6667 31.9999C14.6667 35.0378 12.2045 37.4999 9.16667 37.4999ZM11 23.0184V2.66659C11 1.65459 10.1805 0.833252 9.16667 0.833252C8.15283 0.833252 7.33333 1.65459 7.33333 2.66659V23.0184C3.14967 23.8673 0 27.5651 0 31.9999C0 36.4347 3.14967 40.1326 7.33333 40.9814V50.3332C7.33333 51.3471 8.15283 52.1666 9.16667 52.1666C10.1805 52.1666 11 51.3471 11 50.3332V40.9814C15.1837 40.1326 18.3333 36.4347 18.3333 31.9999C18.3333 27.5651 15.1837 23.8673 11 23.0184ZM27.5 19.1666C24.4622 19.1666 22 16.7044 22 13.6666C22 10.6306 24.4622 8.16658 27.5 8.16658C30.5378 8.16658 33 10.6306 33 13.6666C33 16.7044 30.5378 19.1666 27.5 19.1666ZM29.3333 4.68511V2.66659C29.3333 1.65459 28.5138 0.833252 27.5 0.833252C26.4862 0.833252 25.6667 1.65459 25.6667 2.66659V4.68511C21.483 5.53394 18.3333 9.23175 18.3333 13.6666C18.3333 18.1014 21.483 21.7992 25.6667 22.6481V50.3332C25.6667 51.3471 26.4862 52.1666 27.5 52.1666C28.5138 52.1666 29.3333 51.3471 29.3333 50.3332V22.6481C33.517 21.7992 36.6667 18.1014 36.6667 13.6666C36.6667 9.23175 33.517 5.53394 29.3333 4.68511ZM45.8333 44.8333C42.7955 44.8333 40.3333 42.3711 40.3333 39.3333C40.3333 36.2972 42.7955 33.8333 45.8333 33.8333C48.8712 33.8333 51.3333 36.2972 51.3333 39.3333C51.3333 42.3711 48.8712 44.8333 45.8333 44.8333ZM47.6667 30.3518V2.66659C47.6667 1.65459 46.8472 0.833252 45.8333 0.833252C44.8195 0.833252 44 1.65459 44 2.66659V30.3518C39.8163 31.2006 36.6667 34.8984 36.6667 39.3333C36.6667 43.7681 39.8163 47.4659 44 48.3147V50.3332C44 51.3471 44.8195 52.1666 45.8333 52.1666C46.8472 52.1666 47.6667 51.3471 47.6667 50.3332V48.3147C51.8503 47.4659 55 43.7681 55 39.3333C55 34.8984 51.8503 31.2006 47.6667 30.3518Z" fill="#ECF0F1" fill-opacity="0.8"/>
</svg>
