<svg width="45" height="45" viewBox="0 0 45 45" fill="none" xmlns="http://www.w3.org/2000/svg">
<path d="M26.3672 23.4422L29.3484 26.4235L32.3297 27.4219L34.3195 25.4321L31.3383 24.4406L28.7508 21.8531L27.3586 22.4508L26.3672 23.4422Z" fill="#274C77"/>
<path d="M18.6328 41.1328L21.4453 31.2891H36.9141L34.1016 41.1328" fill="#8B8C89"/>
<path d="M21.4451 21.9586C21.649 22.0781 21.8951 22.1484 22.1482 22.1484C22.9217 22.1484 23.5545 21.5156 23.5545 20.7422C23.5545 19.9688 22.9217 19.3359 22.1482 19.3359C21.8529 19.3359 21.5787 19.4273 21.3467 19.5891" fill="#274C77"/>
<path d="M17.6342 27.0984L15.5248 28.0055C14.8146 28.3078 14.0131 28.3078 13.31 28.0055L11.2006 27.0984C10.167 26.6555 9.49902 25.6359 9.49902 24.5109V20.7422C9.49902 18.4148 11.3904 16.5234 13.7178 16.5234H15.124C17.4514 16.5234 19.3428 18.4148 19.3428 20.7422V24.5109C19.3428 25.6359 18.6748 26.6555 17.6412 27.0984H17.6342Z" fill="#DDA15E"/>
<path d="M38.5224 18.89C39.3461 18.0662 37.5654 14.9499 34.5449 11.9294C31.5244 8.90894 28.4081 7.12817 27.5843 7.95193C26.7606 8.77569 28.5413 11.892 31.5618 14.9125C34.5823 17.933 37.6986 19.7137 38.5224 18.89Z" fill="#A3CEF1"/>
<path d="M28.4766 34.4531C28.8633 34.4531 29.1797 34.7695 29.1797 35.1562C29.1797 35.543 28.8633 35.8594 28.4766 35.8594V34.4531Z" fill="#A3CEF1"/>
<path d="M7.38281 21.9586C7.17891 22.0781 6.93281 22.1484 6.67969 22.1484C5.90625 22.1484 5.27344 21.5156 5.27344 20.7422C5.27344 19.9688 5.90625 19.3359 6.67969 19.3359C6.975 19.3359 7.24922 19.4273 7.48125 19.5891" fill="#274C77"/>
<path d="M16.5234 29.1797C16.5234 30.3469 15.5812 31.2891 14.4141 31.2891C13.2469 31.2891 12.3047 30.3469 12.3047 29.1797V27.5696L13.3031 27.9985C14.0133 28.3079 14.8148 28.3079 15.525 27.9985L16.5234 27.5696V29.1797Z" fill="#BC6C25"/>
<path d="M18.6328 41.1328L21.4453 31.2891H23.6531C22.3734 29.9883 20.5945 29.1797 18.6328 29.1797H16.5234C16.5234 30.3469 15.5813 31.2891 14.4141 31.2891C13.2469 31.2891 12.3047 30.3469 12.3047 29.1797H10.1953C6.31406 29.1797 3.16406 32.3297 3.16406 36.2109V41.1328H18.6328Z" fill="#274C77"/>
<path d="M13.7109 41.1328V39.7266C13.7109 38.9531 13.0781 38.3203 12.3047 38.3203H10.8984V41.1328H13.7109Z" fill="#DDA15E"/>
<path d="M14.4141 41.1328H13.0078V39.7265C13.0078 39.3398 12.6914 39.0234 12.3047 39.0234H7.38281C6.99609 39.0234 6.67969 38.707 6.67969 38.3203V35.5078C6.67969 35.3179 6.75703 35.1422 6.88359 35.0086L7.79062 34.1015C8.06484 33.8273 8.50781 33.8273 8.78203 34.1015C9.05625 34.3758 9.05625 34.8187 8.78203 35.0929L8.07891 35.7961V37.6172H12.2977C13.4648 37.6172 14.407 38.5594 14.407 39.7265V41.1328H14.4141Z" fill="#6096BA"/>
<path d="M36.9141 40.4297H1.75781V41.8359H36.9141V40.4297Z" fill="#A3CEF1"/>
<path d="M18.907 18.9C18.5062 18.7383 18.0422 18.6328 17.4586 18.6328C14.4141 18.6328 14.4141 21.4453 11.3625 21.4453C10.568 21.4453 9.97734 21.2555 9.49219 20.9742V20.7422C9.49219 18.4148 11.3836 16.5234 13.7109 16.5234H15.1172C16.7836 16.5234 18.225 17.4937 18.907 18.9Z" fill="#274C77"/>
<path d="M29.4746 12.5649C30.698 12.1641 32.0832 12.4524 33.0535 13.4227C34.0238 14.393 34.3051 15.7782 33.9113 17.0016C33.152 16.404 32.3574 15.7008 31.5629 14.9133C30.7754 14.1188 30.0723 13.3243 29.4746 12.5649Z" fill="#FFBC0A"/>
<path d="M23.1113 19.6875L27.4004 8.40234C27.2738 9.61875 28.9613 12.2977 31.5699 14.9133C34.1855 17.5219 36.8645 19.2094 38.0738 19.0828H38.0809L27.077 23.3648L23.1184 19.6875H23.1113Z" fill="#6096BA"/>
<path d="M37.6172 10.8984H36.2109C36.2109 10.5117 35.8945 10.1953 35.5078 10.1953V8.78906C36.668 8.78906 37.6172 9.73828 37.6172 10.8984Z" fill="#737373"/>
<path d="M40.4297 10.8984H39.0234C39.0234 8.95781 37.4484 7.38281 35.5078 7.38281V5.97656C38.2219 5.97656 40.4297 8.18438 40.4297 10.8984Z" fill="#737373"/>
<path d="M43.2422 10.8984H41.8359C41.8359 7.41094 38.9953 4.57031 35.5078 4.57031V3.16406C39.7758 3.16406 43.2422 6.63047 43.2422 10.8984Z" fill="#737373"/>
<path d="M22.1699 19.336L22.6199 18.886C22.8941 18.6117 23.3371 18.6117 23.6113 18.886L27.591 22.8656C27.8652 23.1399 27.8652 23.5828 27.591 23.8641L26.5926 24.8555C26.3184 25.1297 25.8754 25.1297 25.6012 24.8555L22.7535 22.0078C23.2246 21.7828 23.5551 21.2977 23.5551 20.7422C23.5551 19.9758 22.9363 19.35 22.1699 19.336Z" fill="#FFBC0A"/>
<path d="M21.4455 21.9586V22.9781C21.4455 23.3086 21.2205 23.5899 20.9111 23.6602C21.0377 24.0961 21.2768 24.511 21.6213 24.8555C22.7182 25.9524 24.5041 25.9524 25.601 24.8555L22.7533 22.0078C22.5705 22.0992 22.3666 22.1485 22.1486 22.1485C21.8955 22.1485 21.6494 22.0781 21.4455 21.9586Z" fill="#6096BA"/>
<path d="M19.3359 23.9766L20.8828 23.6672C21.2063 23.6039 21.4453 23.3156 21.4453 22.9781V20.7422C21.4453 18.8016 20.6578 17.0438 19.3852 15.7711C18.1125 14.4984 16.3547 13.7109 14.4141 13.7109C10.5328 13.7109 7.38281 16.8609 7.38281 20.7422V22.8516C7.38281 23.2383 7.69922 23.5547 8.08594 23.5547H9.49219V20.7422C9.49219 18.4148 11.3836 16.5234 13.7109 16.5234H15.1172C17.4445 16.5234 19.3359 18.4148 19.3359 20.7422V23.9766Z" fill="#E7ECEF"/>
<path d="M14.4141 24.9609C14.3367 24.5812 14.5828 24.2086 14.9625 24.1312L20.7422 22.9781V20.9672C20.7422 17.5992 18.2039 14.6531 14.85 14.4281C11.1656 14.182 8.08594 17.107 8.08594 20.7422V22.8516H9.49219V24.2578H8.08594C7.3125 24.2578 6.67969 23.625 6.67969 22.8516V20.9672C6.67969 16.9453 9.66094 13.4156 13.6688 13.043C18.2672 12.607 22.1484 16.2281 22.1484 20.7422V22.9781C22.1484 23.6461 21.6773 24.2226 21.0164 24.3562L15.2367 25.5094C14.857 25.5867 14.4844 25.3406 14.407 24.9609H14.4141Z" fill="#274C77"/>
</svg>
