<svg width="45" height="45" viewBox="0 0 45 45" fill="none" xmlns="http://www.w3.org/2000/svg">
<path d="M26.3275 17.1686V41.1859C26.3275 43.2891 24.6268 44.9999 22.5363 44.9999H22.2394C20.1489 44.9999 18.4492 43.289 18.4492 41.1859V17.1686H26.3275Z" fill="#FFAD1D"/>
<path d="M26.3269 17.1686V41.1859C26.3269 43.2891 24.6262 44.9999 22.5357 44.9999H22.3877V17.1686H26.3269Z" fill="#FF8900"/>
<path d="M28.2318 12.4103C27.7216 14.7288 26.0843 17.437 23.1509 17.437H20.929L20.7148 17.3644C20.5355 17.3037 16.3234 15.809 16.6194 9.6663C16.7132 7.72752 17.3153 6.13072 18.0875 4.85754C19.6604 2.26424 21.9412 1.00942 22.0828 0.934014L22.388 0.770361L23.821 0L24.1005 1.95346C24.1988 2.55463 25.5171 4.96046 26.0861 5.57727C26.2185 5.72071 26.3454 5.86503 26.4658 6.01119C28.1095 7.9904 28.7208 10.1921 28.2318 12.4103Z" fill="#C7C5CC"/>
<path d="M26.3275 37.0206H18.4492V39.7785H26.3275V37.0206Z" fill="#FF4F18"/>
<path d="M26.3269 37.0206H22.3877V39.7785H26.3269V37.0206Z" fill="#FF3400"/>
<path d="M28.2315 12.4103C27.7213 14.7288 26.0841 17.437 23.1507 17.437H22.3877V0.770361L23.8208 0L24.1002 1.95346C24.1986 2.55463 25.5169 4.96046 26.0859 5.57727C26.2182 5.72071 26.3451 5.86503 26.4656 6.01119C28.1093 7.9904 28.7206 10.1921 28.2315 12.4103Z" fill="#8A8791"/>
<path d="M26.4662 6.01119C26.4718 6.54899 26.3044 7.17038 26.002 7.70177C25.7565 8.13656 25.421 8.51256 25.0165 8.73316C24.714 8.90051 24.372 8.97952 24.0016 8.93355C22.7293 8.77456 22.8828 6.61421 22.3883 5.9799C22.312 5.88059 22.2191 5.81906 22.1024 5.80799C21.2833 5.72889 21.6041 6.95619 19.9687 7.21353C19.8786 7.22821 19.783 7.23929 19.681 7.24755C19.1846 7.28613 18.838 7.15289 18.5962 6.93035C17.8828 6.27671 18.0879 4.85736 18.0879 4.85736C19.6608 2.26406 21.9415 1.00925 22.0831 0.933838L22.3884 0.770186L23.8214 0L24.1009 1.95346C24.1993 2.55463 25.5175 4.96046 26.0865 5.57728C26.219 5.72071 26.3458 5.86503 26.4662 6.01119Z" fill="#00A5FF"/>
<path d="M26.4656 6.01119C26.4712 6.54899 26.3038 7.17038 26.0014 7.70177C25.7559 8.13656 25.4205 8.51256 25.0159 8.73316C24.7135 8.90051 24.3715 8.97952 24.001 8.93355C22.7287 8.77456 22.8823 6.61421 22.3877 5.9799V0.770361L23.8208 0L24.1003 1.95346C24.1987 2.55463 25.517 4.96046 26.086 5.57728C26.2184 5.72071 26.3452 5.86503 26.4656 6.01119Z" fill="#0087FF"/>
</svg>
