<svg width="60" height="60" viewBox="0 0 60 60" fill="none" xmlns="http://www.w3.org/2000/svg">
<path d="M29.9761 0C24.3511 0 18.7261 0.15 13.4761 0.525C10.144 0.741483 7.00059 2.14812 4.6189 4.4885C2.23722 6.82889 0.775818 9.94718 0.501084 13.275C-0.0989155 21.3 -0.173916 29.25 0.351084 37.275C0.638586 40.8414 2.27025 44.1654 4.91585 46.5743C7.56145 48.9832 11.0234 50.2971 14.6011 50.25H22.4761V40.5H14.6011C12.2761 40.575 10.2511 38.925 10.0261 36.6C9.57608 29.1 9.65108 21.6 10.1761 14.1C10.3261 12 11.9761 10.425 14.0761 10.275C19.1761 9.9 24.5761 9.75 29.9761 9.75C35.3761 9.75 40.7761 9.975 45.8761 10.2C47.9011 10.35 49.6261 11.925 49.7761 14.025C50.3761 21.525 50.3761 29.025 49.9261 36.525C49.6261 38.85 47.6761 40.575 45.3511 40.5H37.4761L22.4761 50.25V60L37.4761 50.25H45.3511C52.7761 50.325 59.0011 44.625 59.6011 37.275C60.1261 29.325 60.0511 21.3 59.5261 13.35C59.2514 10.0222 57.79 6.90389 55.4083 4.5635C53.0266 2.22312 49.8832 0.816483 46.5511 0.6C41.2261 0.15 35.6011 0 29.9761 0ZM17.3761 21.9C16.4761 21.9 15.7261 22.65 15.7261 23.55V29.4C15.7261 30.225 16.1761 30.975 16.9261 31.35C20.9761 33.3 25.4761 34.35 29.9761 34.5C34.4761 34.35 38.9761 33.3 43.0261 31.35C43.7761 30.975 44.2261 30.225 44.2261 29.4V23.55C44.2261 23.325 44.1511 23.175 44.0011 23.025C43.9224 22.8192 43.8025 22.6316 43.6489 22.4737C43.4952 22.3158 43.3109 22.191 43.1074 22.1067C42.9038 22.0225 42.6851 21.9806 42.4648 21.9838C42.2445 21.9869 42.0272 22.035 41.8261 22.125C38.0761 23.775 34.0261 24.675 29.9011 24.75C25.7761 24.675 21.7261 23.7 17.9761 22.05C17.7896 21.9564 17.5847 21.9051 17.3761 21.9Z" fill="#2CA9BC"/>
</svg>
