<svg width="40" height="40" viewBox="0 0 40 40" fill="none" xmlns="http://www.w3.org/2000/svg">
<path d="M24.3125 26.6583L26.6692 24.3025L36.685 34.3183L34.3283 36.6742L24.3125 26.6583Z" fill="#616161"/>
<path d="M3.33301 16.6667C3.33301 20.2029 4.73777 23.5943 7.23825 26.0948C9.73874 28.5953 13.1301 30 16.6663 30C20.2026 30 23.5939 28.5953 26.0944 26.0948C28.5949 23.5943 29.9997 20.2029 29.9997 16.6667C29.9997 13.1305 28.5949 9.7391 26.0944 7.23862C23.5939 4.73813 20.2026 3.33337 16.6663 3.33337C13.1301 3.33337 9.73874 4.73813 7.23825 7.23862C4.73777 9.7391 3.33301 13.1305 3.33301 16.6667Z" fill="#616161"/>
<path d="M27.042 29.45L29.3978 27.0934L36.6445 34.34L34.2878 36.6967L27.042 29.45Z" fill="#37474F"/>
<path d="M5.83301 16.6667C5.83301 19.5399 6.97437 22.2954 9.00602 24.327C11.0377 26.3587 13.7932 27.5 16.6663 27.5C19.5395 27.5 22.295 26.3587 24.3267 24.327C26.3583 22.2954 27.4997 19.5399 27.4997 16.6667C27.4997 13.7935 26.3583 11.038 24.3267 9.00638C22.295 6.97474 19.5395 5.83337 16.6663 5.83337C13.7932 5.83337 11.0377 6.97474 9.00602 9.00638C6.97437 11.038 5.83301 13.7935 5.83301 16.6667Z" fill="#64B5F6"/>
<path d="M22.4163 11.8333C20.9996 10.1666 18.9163 9.16663 16.6663 9.16663C14.4163 9.16663 12.333 10.1666 10.9163 11.8333C10.583 12.1666 10.6663 12.75 10.9996 13C11.333 13.3333 11.9163 13.25 12.1663 12.9166C13.333 11.5833 14.9163 10.8333 16.6663 10.8333C18.4163 10.8333 19.9996 11.5833 21.1663 12.9166C21.333 13.0833 21.583 13.25 21.833 13.25C21.9996 13.25 22.2496 13.1666 22.333 13.0833C22.6663 12.75 22.6663 12.1666 22.4163 11.8333Z" fill="#BBDEFB"/>
</svg>
