<svg width="55" height="55" viewBox="0 0 55 55" fill="none" xmlns="http://www.w3.org/2000/svg">
<path fill-rule="evenodd" clip-rule="evenodd" d="M45.0303 1.83234C42.358 -1.67248 36.6881 0.186601 36.6881 4.56759V8.96665C28.0435 8.86433 22.13 11.8358 18.191 15.9856C13.9801 20.4217 12.2482 25.9678 11.5224 29.76C11.1595 31.6559 12.4032 33.0316 13.7102 33.5067C14.9589 33.9604 16.6273 33.7661 17.7408 32.4933C20.901 28.8812 27.0407 23.8397 36.6881 24.1688V29.8075C36.6881 34.1885 42.358 36.0475 45.0303 32.5426L53.6098 21.2904C55.4635 18.859 55.4635 15.516 53.6098 13.0846L45.0303 1.83234ZM17.1464 26.6051C21.2834 22.9948 27.2217 19.6068 36.6881 19.6068H39.0059C40.2858 19.6068 41.3233 20.6274 41.3233 21.8863L41.3228 29.8075L49.9021 18.5551C50.5202 17.7447 50.5202 16.6303 49.9021 15.8199L41.3228 4.56759V11.2461C41.3228 12.5049 40.2854 13.5254 39.0055 13.5254H36.6881C26.2611 13.5254 21.5784 19.0968 21.5784 19.0968C19.4226 21.3679 18.0352 24.0671 17.1464 26.6051Z" fill="#ECF0F1" fill-opacity="0.8"/>
<path d="M16.0415 2.30054H9.1665C5.36956 2.30054 2.2915 5.37857 2.2915 9.17554V45.8422C2.2915 49.6392 5.36956 52.7172 9.1665 52.7172H45.8332C49.6302 52.7172 52.7082 49.6392 52.7082 45.8422V38.9672C52.7082 37.7015 51.6822 36.6755 50.4165 36.6755C49.1508 36.6755 48.1248 37.7015 48.1248 38.9672V45.8422C48.1248 47.1079 47.0989 48.1339 45.8332 48.1339H9.1665C7.90086 48.1339 6.87484 47.1079 6.87484 45.8422V9.17554C6.87484 7.90987 7.90086 6.88387 9.1665 6.88387H16.0415C17.3071 6.88387 18.3332 5.85785 18.3332 4.5922C18.3332 3.32654 17.3071 2.30054 16.0415 2.30054Z" fill="#ECF0F1" fill-opacity="0.8"/>
</svg>
