<svg width="45" height="45" viewBox="0 0 45 45" fill="none" xmlns="http://www.w3.org/2000/svg">
<path d="M29.3807 12.7913H28.3682V16.1288H29.3807C29.9432 16.1288 30.4307 15.7538 30.4307 15.2663V13.6163C30.4307 13.1663 29.9807 12.7913 29.3807 12.7913Z" fill="#448FFC"/>
<path d="M14.5684 13.6163V15.2663C14.5684 15.7163 15.0184 16.1288 15.6184 16.1288H16.6309V12.7913H15.6184C15.0184 12.7913 14.5684 13.1663 14.5684 13.6163Z" fill="#448FFC"/>
<path d="M35.8684 38.5162H9.13086V27.7537C9.13086 26.0287 10.3684 24.4912 12.2059 23.9287L19.8934 21.6037C21.6184 21.0787 23.4184 21.0787 25.0684 21.6037L32.7559 23.9287C34.5934 24.4912 35.8309 26.0287 35.8309 27.7537L35.8684 38.5162Z" fill="#F99653"/>
<path d="M28.7438 29.2538H24.2812V30.2288H28.7438V29.2538Z" fill="#FFD551"/>
<path d="M25.3305 16.9163H19.668V24.7913H25.3305V16.9163Z" fill="#EDBF9A"/>
<path d="M28.9309 13.0163C28.9309 17.3663 26.0434 21.7913 22.5184 21.7913C18.9934 21.7913 16.0684 17.3288 16.0684 13.0163C16.0684 8.70376 18.9559 6.04126 22.5184 6.04126C26.0809 6.04126 28.9309 8.66626 28.9309 13.0163Z" fill="#FFD9B6"/>
<path d="M15.2812 30.7163H15.0937C14.9062 30.7163 14.7188 30.8663 14.7188 31.0913V38.4788H15.6937V31.1288C15.6562 30.9038 15.4687 30.7163 15.2812 30.7163Z" fill="#E08344"/>
<path d="M29.9434 30.7163H29.7559C29.5684 30.7163 29.3809 30.8663 29.3809 31.0913V38.4788H30.3559V31.1288C30.3184 30.9038 30.1684 30.7163 29.9434 30.7163Z" fill="#E08344"/>
<path d="M25.3309 22.1663L22.5184 24.7163L19.6684 22.1663L19.2559 21.7913L16.2559 22.6913L20.7184 26.7413L22.5184 24.7913L24.2809 26.7413L28.7809 22.6913L25.7434 21.7913L25.3309 22.1663Z" fill="#E08344"/>
<path d="M25.0684 18.8663C24.6184 18.8663 24.5059 18.8663 23.9434 18.8288H23.3809V18.3788H23.9434C26.5309 18.4538 27.3934 18.4913 28.1809 17.8163C29.0059 17.1413 28.8559 15.4163 28.8559 15.3788L29.3059 15.3413C29.3059 15.4163 29.4934 17.3288 28.4809 18.1538C27.7309 18.7913 26.7559 18.8663 25.0684 18.8663Z" fill="#448FFC"/>
<path d="M24.4305 19.3913H22.893C22.668 19.3913 22.4805 19.2038 22.4805 18.9788V18.4163C22.4805 18.1913 22.668 18.0038 22.893 18.0038H24.4305C24.6555 18.0038 24.843 18.1913 24.843 18.4163V18.9788C24.8805 19.1663 24.693 19.3913 24.4305 19.3913Z" fill="#F99653"/>
<path d="M28.9307 8.89127C28.9307 6.90377 27.9182 6.82877 27.9182 6.82877L26.3432 6.64127C26.0432 6.60377 25.8182 6.37877 25.7807 6.07877C25.5932 5.06627 24.8432 5.17877 24.8432 5.17877C24.8432 5.17877 19.6307 5.17877 17.9807 5.81627C16.0682 6.56627 15.6182 7.87877 15.6182 8.96627C15.6182 11.1788 16.1807 15.1538 16.5182 16.0538C16.5932 16.2413 16.9307 16.2038 16.9307 15.9788V13.0163C16.9307 12.8288 17.0807 12.6788 17.2682 12.6788H24.5432C24.7307 12.6788 24.8807 12.5288 24.8807 12.3413V11.6288C24.8807 11.4413 25.0307 11.2913 25.2182 11.2913C25.4057 11.2913 25.5182 11.4413 25.5182 11.6288V12.3413C25.5182 12.5288 25.6682 12.6788 25.8557 12.6788H27.7307C27.9182 12.6788 28.0682 12.8288 28.0682 13.0163V15.8663C28.0682 16.0913 28.4807 16.0913 28.5557 15.9038C28.8182 14.9663 28.9682 14.0288 28.9682 13.0538C28.9682 12.6413 28.9307 10.0538 28.9307 8.89127Z" fill="#3F3F3F"/>
<path d="M12.2058 25.9912H32.7933C33.5058 25.9912 34.0683 26.5912 33.9933 27.3037L33.2433 38.9287H11.7933L11.0433 27.3037C10.9683 26.5912 11.4933 25.9912 12.2058 25.9912Z" fill="#EFEEED"/>
<path d="M23.869 36.0038C23.869 35.4038 23.494 34.9163 22.969 34.7288V35.7788C22.969 36.0038 22.819 36.2288 22.5565 36.2288C22.294 36.2663 22.0315 36.0413 22.0315 35.7788V34.7288C21.469 34.9163 21.094 35.4788 21.1315 36.1163C21.169 36.6413 21.544 37.0913 22.0315 37.2788V38.6663H22.9315V37.2788C23.494 37.1288 23.869 36.6038 23.869 36.0038Z" fill="#80B2F9"/>
<path d="M26.4566 37.0912H27.3566V35.0662H26.4566C26.3441 34.6912 26.2316 34.3162 26.0066 34.0162L26.6441 33.3787L25.2191 31.9162L24.5816 32.5537C24.2441 32.3662 23.9066 32.2162 23.5316 32.1037V31.2037H21.5066V32.1037C21.1316 32.2162 20.7941 32.3287 20.4566 32.5537L19.8191 31.9162L18.3941 33.3412L19.0316 33.9787C18.8441 34.3162 18.6941 34.6537 18.5816 35.0287H17.6816V37.0537H18.5816C18.6566 37.3912 18.8066 37.6912 18.9566 37.9912C18.9566 38.0287 18.9941 38.0662 19.0316 38.1037L18.3941 38.7412L19.4816 39.8287H20.1566L20.4566 39.5287C20.6441 39.6412 20.8691 39.7537 21.0566 39.8287H23.9816C24.2066 39.7537 24.3941 39.6412 24.5816 39.5287L24.8816 39.8287H25.5566L26.6816 38.7412L26.0441 38.1037C26.0816 38.0662 26.0816 38.0287 26.1191 37.9537C26.2691 37.6912 26.3816 37.3912 26.4566 37.0912ZM22.9691 38.2537C22.8191 38.2912 22.6691 38.2912 22.5191 38.2912C22.3691 38.2912 22.2191 38.2912 22.0691 38.2537C21.8441 38.2162 21.6191 38.1037 21.3941 37.9912C20.7191 37.6162 20.2691 36.8662 20.2691 36.0412C20.2691 34.8037 21.2816 33.7912 22.5191 33.7912C23.7566 33.7912 24.7691 34.8037 24.7691 36.0412C24.7691 36.8662 24.3191 37.5787 23.6441 37.9912C23.4566 38.1037 23.1941 38.2162 22.9691 38.2537Z" fill="#80B2F9"/>
<path d="M38.0063 38.9287C38.0063 39.1912 37.8937 39.4162 37.7437 39.6037C37.5937 39.7912 37.3312 39.8662 37.0688 39.8662H7.96875C7.44375 39.8662 7.03125 39.4537 7.03125 38.9287C7.03125 38.6662 7.14375 38.4412 7.29375 38.2537C7.44375 38.0662 7.70625 37.9912 7.96875 37.9912H37.0688C37.5938 37.9912 38.0063 38.4037 38.0063 38.9287Z" fill="#448FFC"/>
</svg>
