<svg width="40" height="40" viewBox="0 0 40 40" fill="none" xmlns="http://www.w3.org/2000/svg">
<path fill-rule="evenodd" clip-rule="evenodd" d="M32.9713 6.53049C33.5521 6.39283 33.9571 6.25748 34.289 6.11533C34.754 5.91609 35.1395 5.67743 35.7486 5.27548C36.2605 4.93766 36.9165 4.90824 37.4565 5.19888C37.9965 5.48951 38.3333 6.05324 38.3333 6.66651C38.3333 8.46806 38.1088 9.94463 37.5891 11.2441C37.1518 12.3371 36.5375 13.2249 35.8026 14.0329C35.4923 19.6381 33.8698 24.0399 31.3893 27.3747C28.8183 30.8312 25.3976 33.0447 21.7918 34.2844C18.1965 35.5202 14.3977 35.7964 10.9945 35.3779C7.61357 34.9622 4.48836 33.8429 2.31005 32.1487C1.71351 31.6847 1.50382 30.8774 1.79915 30.1817C2.09448 29.4861 2.8209 29.0762 3.56903 29.1832C5.71231 29.4894 7.77546 29.0021 9.47196 28.3054C9.138 28.1237 8.82311 27.9271 8.53043 27.7244C6.98455 26.6542 5.7373 25.2014 5.17591 24.0786C4.9436 23.6141 4.9412 23.0676 5.16943 22.6011C5.28716 22.3602 5.45933 22.1551 5.66837 21.9986C3.41125 20.1357 2.49995 17.5592 2.49995 15.8332C2.49995 15.3199 2.73641 14.8353 3.14095 14.5195C3.31105 14.3867 3.50288 14.2899 3.7051 14.2317C3.5362 13.7371 3.40513 13.2374 3.30523 12.7537C2.86228 10.6089 2.9016 8.18814 3.38305 6.26229C3.5478 5.60326 4.09603 5.11018 4.76878 5.01594C5.44151 4.92173 6.10413 5.24523 6.4436 5.83364C8.23945 8.94644 11.5519 10.8491 14.6347 11.9762C16.0841 12.5061 17.4265 12.8438 18.4326 13.0514C18.6498 11.0171 19.2178 9.33941 20.0896 8.00693C21.2398 6.24894 22.844 5.20883 24.5666 4.74504C27.5378 3.94521 30.8346 4.85644 32.9713 6.53049ZM17.914 16.3475C16.7721 16.1182 15.2028 15.733 13.4902 15.1069C11.2281 14.2799 8.60143 12.9904 6.40117 10.9929C6.44055 11.3605 6.49645 11.7249 6.56968 12.0795C6.93843 13.8651 7.62363 14.8651 8.24531 15.1759C9.00566 15.5561 9.35803 16.4476 9.06308 17.2449C8.66375 18.3244 7.61345 18.4129 6.65915 18.1744C7.42668 19.3251 8.80625 20.4724 11.1073 20.8559C11.9009 20.9882 12.4868 21.6686 12.4997 22.4731C12.5127 23.2776 11.9491 23.9764 11.1601 24.1342L9.70938 24.4244C9.93131 24.6172 10.1716 24.8064 10.4278 24.9837C11.5893 25.7879 12.7556 26.1347 13.7624 25.8831C14.5165 25.6946 15.3007 26.0522 15.6527 26.7454C16.0046 27.4384 15.8307 28.2827 15.2336 28.7802C14.1604 29.6736 12.907 30.3904 11.6509 30.9852C11.0612 31.2646 10.4022 31.5402 9.68646 31.7829C10.2369 31.9004 10.8097 31.9967 11.4013 32.0696C14.3522 32.4324 17.6368 32.1877 20.7081 31.1321C23.769 30.0799 26.5981 28.2309 28.7148 25.3854C30.8283 22.5437 32.3033 18.6112 32.5011 13.2716C32.5166 12.8512 32.6906 12.4522 32.9881 12.1548C33.7375 11.4053 34.3568 10.5464 34.6615 9.52391C34.1283 9.69013 33.528 9.83399 32.813 9.97069C32.2705 10.0744 31.712 9.90268 31.3215 9.51219C30.0473 8.23798 27.5273 7.40004 25.4331 7.96378C24.4476 8.22909 23.5518 8.80346 22.879 9.83184C22.1921 10.8818 21.6666 12.5175 21.6666 14.9999C21.6666 15.4715 21.4668 15.9211 21.1168 16.2371C20.2868 16.9862 18.89 16.5435 17.914 16.3475Z" fill="#ECF0F1" fill-opacity="0.8"/>
</svg>
